<svg width="32" height="32" viewBox="0 0 32 32" fill="none" xmlns="http://www.w3.org/2000/svg">
<g clip-path="url(#clip0_2577_2863)">
<path d="M29.5 0H2.5C1.11929 0 0 1.11929 0 2.5V29.5C0 30.8807 1.11929 32 2.5 32H29.5C30.8807 32 32 30.8807 32 29.5V2.5C32 1.11929 30.8807 0 29.5 0Z" fill="#030021"/>
<mask id="mask0_2577_2863" style="mask-type:luminance" maskUnits="userSpaceOnUse" x="6" y="9" width="20" height="14">
<path d="M25.375 9H6.625V22.9773H25.375V9Z" fill="white"/>
</mask>
<g mask="url(#mask0_2577_2863)">
<path d="M31.2096 18.8922L30.5405 20.4788H29.6161L31.9476 14.9189H33.0859L35.5416 20.4788H34.5482L33.8515 18.8922H31.2096ZM33.5687 18.1266C32.9272 16.6503 32.6168 15.9468 32.4926 15.5536H32.4857C32.3685 15.9329 32.0097 16.8642 31.4786 18.1266H33.5687ZM37.1489 14.9189H38.0662V19.7131H41.3635L41.2325 20.4788H37.1558V14.9189H37.1489ZM42.9707 14.9189H43.8882V19.7131H47.1855L47.0544 20.4788H42.9776V14.9189H42.9707ZM49.386 14.9189V18.0713C49.386 19.4648 50.1861 19.8442 50.9863 19.8442C51.9383 19.8442 52.5246 19.4027 52.5246 18.0713V14.9189H53.442V18.0783C53.442 19.8579 52.5039 20.5961 50.9519 20.5961C49.4411 20.5961 48.4548 19.8579 48.4548 18.1334V14.9189H49.386ZM59.5261 20.4788L57.8154 18.2576H57.8016L56.1391 20.4788H55.0975L57.2842 17.6299L55.1804 14.9189H56.2771L57.8636 16.9953L57.8706 16.9883L59.4709 14.9189H60.4987L58.3672 17.6023L60.616 20.4788H59.5261ZM63.4235 14.9189V20.4788H62.4991V14.9189H63.4235ZM71.3286 17.6782C71.3286 19.2441 70.2664 20.5961 68.3694 20.5961C66.5553 20.5961 65.4446 19.3061 65.4446 17.6782C65.4446 16.1399 66.5898 14.8017 68.4039 14.8017C70.2111 14.8017 71.3286 16.1399 71.3286 17.6782ZM66.4173 17.6643C66.4173 18.8232 67.1001 19.8442 68.4108 19.8442C69.7145 19.8442 70.356 18.8302 70.356 17.6919C70.356 16.5814 69.6869 15.5536 68.3556 15.5536C67.114 15.5536 66.4173 16.5399 66.4173 17.6643ZM24.9048 23.0103H20.69L14.1714 10.925L8.17009 22.1343H10.5913L14.9233 13.9808L15.42 14.8844L11.1018 22.9897H6.74219L14.1714 9.11768L21.2005 22.1551H23.4837L17.5515 10.9181L16.7926 12.3046L16.296 11.4147L17.5721 9.12458L24.9048 23.0103Z" fill="white"/>
<path d="M18.4201 20.4442H13.3433L13.7916 19.5889H17.9649L18.4201 20.4442Z" fill="white"/>
</g>
</g>
<defs>
<clipPath id="clip0_2577_2863">
<rect width="32" height="32" fill="white"/>
</clipPath>
</defs>
</svg>
